<svg xmlns="http://www.w3.org/2000/svg" viewBox="0 0 500 500"><g id="freepik--background-simple--inject-4"><path d="M433,104.84l-2.49-4.12c-21-34.68-59.1-55.59-99.22-53a104.86,104.86,0,0,0-15.36,2.11c-36.47,7.81-68.21,35.39-81.37,70.72-7.73,20.77-9.9,44.69-24.58,61.19-19.11,21.46-51.55,22.13-80.07,21.24s-61-.13-80,21.42C38,237.84,34.17,257,35.13,275.1,37.67,323,71,365.73,113.41,387s92.32,23.17,138.72,13.81c65-13.1,126.83-49.09,164-104.67S462.69,164.83,433,104.84Z" style="fill:#f5f5f5"></path></g><g id="freepik--Floor--inject-4"><path d="M458.39,470.93c0,.15-93.31.27-208.38.27s-208.4-.12-208.4-.27,93.29-.26,208.4-.26S458.39,470.79,458.39,470.93Z" style="fill:#263238"></path></g><g id="freepik--Device--inject-4"><rect x="115.34" y="46.22" width="295.81" height="424.51" rx="11.55" style="fill:#263238"></rect><rect x="124.11" y="76.51" width="277.15" height="354.52" style="fill:#fff"></rect><path d="M275.57,450.37a23.89,23.89,0,0,0-.49-3A12.17,12.17,0,0,0,259.13,439a11.6,11.6,0,0,0-3.05,1.65,11.31,11.31,0,0,0-2.55,2.57,12,12,0,0,0,0,14.26,11.47,11.47,0,0,0,2.55,2.56,11.32,11.32,0,0,0,3.05,1.65,12.15,12.15,0,0,0,6.35.54,11.93,11.93,0,0,0,5.11-2.24,12.22,12.22,0,0,0,4.49-6.66,23.93,23.93,0,0,0,.49-3,4.32,4.32,0,0,1,0,.79,6,6,0,0,1-.07.95,9.32,9.32,0,0,1-.23,1.29,12.45,12.45,0,0,1-9.72,9.28,12.53,12.53,0,0,1-6.59-.52,12.65,12.65,0,0,1-5.85-4.36,12.51,12.51,0,0,1,0-14.87,12.65,12.65,0,0,1,5.85-4.36,12.63,12.63,0,0,1,6.59-.52,12.45,12.45,0,0,1,9.72,9.28,9.59,9.59,0,0,1,.23,1.29,6,6,0,0,1,.07,1A4.32,4.32,0,0,1,275.57,450.37Z" style="fill:#455a64"></path><rect x="218.7" y="58.45" width="89.09" height="4.69" rx="1.22" style="fill:#455a64"></rect><rect x="241.75" y="130.04" width="67.95" height="82.2" style="fill:#fafafa"></rect><path d="M309.7,212.24s0-.14,0-.4,0-.65,0-1.15c0-1,0-2.52,0-4.46,0-3.9,0-9.59-.06-16.81,0-14.43-.07-34.95-.12-59.38l.23.23-67.94,0h0L242,130c0,30.39,0,58.66,0,82.2l-.22-.21,49.27.11,13.78.05,3.64,0,1.26,0s-.4,0-1.21,0l-3.6,0-13.73.06-49.41.11h-.22v-.22c0-23.54,0-51.81,0-82.2v-.26h.27l67.94,0h.23V130c0,24.49-.08,45.06-.11,59.53,0,7.19-.05,12.87-.06,16.76,0,1.92,0,3.4,0,4.41,0,.49,0,.86,0,1.13S309.7,212.24,309.7,212.24Z" style="fill:#ebebeb"></path><rect x="124.11" y="76.51" width="277.15" height="26.16" style="fill:#e0e0e0"></rect><path d="M141.51,90.05a3.22,3.22,0,1,1-3.21-3.4A3.3,3.3,0,0,1,141.51,90.05Z" style="fill:#263238"></path><path d="M153.45,90.05a3.22,3.22,0,1,1-3.21-3.4A3.31,3.31,0,0,1,153.45,90.05Z" style="fill:#263238"></path><path d="M165.39,90.05a3.22,3.22,0,1,1-3.21-3.4A3.31,3.31,0,0,1,165.39,90.05Z" style="fill:#263238"></path><rect x="241.75" y="112.01" width="67.95" height="18.98" rx="2.39" style="fill:#FF725E"></rect><path d="M307.32,131a2.66,2.66,0,0,0,1.54-.64,2.36,2.36,0,0,0,.76-1.82c0-.83,0-1.78,0-2.85,0-2.16,0-4.79,0-7.83,0-.76,0-1.55,0-2.37,0-.4,0-.83,0-1.23a2.27,2.27,0,0,0-.38-1.11,2.34,2.34,0,0,0-2.18-1h-2.81l-60,.08a2.14,2.14,0,0,0-1.69.83,2.35,2.35,0,0,0-.4.88,6.72,6.72,0,0,0,0,1v12.74a3.42,3.42,0,0,0,.27,1.89,2.14,2.14,0,0,0,1.42,1.05,4.28,4.28,0,0,0,1,0h10.82l27,.05,18.19.09,4.94,0,1.29,0a2.5,2.5,0,0,1,.44,0l-.44,0-1.29,0-4.94.05-18.19.08-27,.06H244.66a5.65,5.65,0,0,1-1.06-.06,2.66,2.66,0,0,1-1.77-1.29,2.75,2.75,0,0,1-.32-1.08c0-.39,0-.7,0-1.06q0-4.14,0-8.43V115a6.34,6.34,0,0,1,0-1.13,2.59,2.59,0,0,1,.5-1.09,2.65,2.65,0,0,1,2.1-1l60,.07H307a2.67,2.67,0,0,1,2.45,1.13,2.49,2.49,0,0,1,.44,1.27c0,.44,0,.84,0,1.25,0,.82,0,1.61,0,2.37,0,3,0,5.67-.05,7.83,0,1.07,0,2,0,2.85a2.49,2.49,0,0,1-.85,1.9,2.4,2.4,0,0,1-1.17.54A1.34,1.34,0,0,1,307.32,131Z" style="fill:#f5f5f5"></path><rect x="320.69" y="112.01" width="67.95" height="18.98" rx="2.39" style="fill:#f5f5f5"></rect><path d="M386.26,131a2.66,2.66,0,0,0,1.54-.64,2.37,2.37,0,0,0,.77-1.82q0-1.25,0-2.85c0-2.16,0-4.79,0-7.83,0-.76,0-1.55,0-2.37,0-.4,0-.83,0-1.23a2.18,2.18,0,0,0-.38-1.11,2.34,2.34,0,0,0-2.18-1H383.1l-60,.08a2.14,2.14,0,0,0-1.69.83,2.35,2.35,0,0,0-.4.88,6.72,6.72,0,0,0,0,1v12.74a3.42,3.42,0,0,0,.27,1.89,2.16,2.16,0,0,0,1.42,1.05,4.28,4.28,0,0,0,1,0h10.82l27,.05,18.19.09,4.94,0,1.29,0a2.5,2.5,0,0,1,.44,0l-.44,0-1.29,0-4.94.05-18.19.08-27,.06H323.6a5.65,5.65,0,0,1-1.06-.06,2.66,2.66,0,0,1-1.77-1.29,2.75,2.75,0,0,1-.32-1.08c0-.39,0-.7,0-1.06,0-2.76,0-5.57,0-8.43V115a6.34,6.34,0,0,1,.05-1.13,2.71,2.71,0,0,1,.5-1.09,2.65,2.65,0,0,1,2.1-1l60,.07h2.81a2.67,2.67,0,0,1,2.45,1.13,2.49,2.49,0,0,1,.44,1.27c0,.44,0,.84,0,1.25,0,.82,0,1.61,0,2.37,0,3,0,5.67-.05,7.83,0,1.07,0,2,0,2.85a2.49,2.49,0,0,1-.85,1.9,2.4,2.4,0,0,1-1.17.54A1.34,1.34,0,0,1,386.26,131Z" style="fill:#263238"></path><circle cx="171.17" cy="158.99" r="23.39" transform="translate(-38.43 55.82) rotate(-16.68)" style="fill:#e0e0e0"></circle><path d="M202.13,212c0,.14-13.86.26-31,.26s-31-.12-31-.26,13.86-.26,31-.26S202.13,211.85,202.13,212Z" style="fill:#263238"></path><path d="M202.13,227.9c0,.15-13.86.26-31,.26s-31-.11-31-.26,13.86-.26,31-.26S202.13,227.76,202.13,227.9Z" style="fill:#263238"></path><path d="M202.13,243.81c0,.15-13.86.26-31,.26s-31-.11-31-.26,13.86-.26,31-.26S202.13,243.67,202.13,243.81Z" style="fill:#263238"></path><path d="M202.13,259.72c0,.14-13.86.26-31,.26s-31-.12-31-.26,13.86-.26,31-.26S202.13,259.58,202.13,259.72Z" style="fill:#263238"></path><circle cx="151.01" cy="290.6" r="8.2" transform="translate(-100.15 80.43) rotate(-22.62)" style="fill:#e0e0e0"></circle><circle cx="151.01" cy="325.01" r="8.2" transform="translate(-113.39 83.08) rotate(-22.62)" style="fill:#e0e0e0"></circle><circle cx="151.01" cy="359.42" r="8.2" style="fill:#e0e0e0"></circle><circle cx="151.01" cy="393.84" r="8.2" style="fill:#e0e0e0"></circle><path d="M199.25,290.6c0,.14-7.81.26-17.43.26s-17.44-.12-17.44-.26,7.8-.26,17.44-.26S199.25,290.46,199.25,290.6Z" style="fill:#263238"></path><path d="M199.25,325c0,.15-7.81.26-17.43.26s-17.44-.11-17.44-.26,7.8-.26,17.44-.26S199.25,324.87,199.25,325Z" style="fill:#263238"></path><path d="M199.25,359.42c0,.15-7.81.27-17.43.27s-17.44-.12-17.44-.27,7.8-.26,17.44-.26S199.25,359.28,199.25,359.42Z" style="fill:#263238"></path><path d="M199.25,393.84c0,.14-7.81.26-17.43.26s-17.44-.12-17.44-.26,7.8-.26,17.44-.26S199.25,393.69,199.25,393.84Z" style="fill:#263238"></path><path d="M288.42,121.5c0,.14-8.5.26-19,.26s-19-.12-19-.26,8.5-.26,19-.26S288.42,121.35,288.42,121.5Z" style="fill:#fff"></path><path d="M295.5,120.6l1.46,2a.51.51,0,0,0,.87,0l1.21-2a.53.53,0,0,0-.45-.8h-2.66A.53.53,0,0,0,295.5,120.6Z" style="fill:#fff"></path><path d="M376.72,120.49l1.45,2a.52.52,0,0,0,.88,0l1.2-2a.52.52,0,0,0-.45-.8h-2.65A.53.53,0,0,0,376.72,120.49Z" style="fill:#263238"></path><path d="M309.7,147.07c0,.14-15.08.26-33.69.26s-33.69-.12-33.69-.26,15.08-.26,33.69-.26S309.7,146.92,309.7,147.07Z" style="fill:#ebebeb"></path><path d="M309.7,168.51c0,.14-15.08.26-33.69.26s-33.69-.12-33.69-.26,15.08-.26,33.69-.26S309.7,168.37,309.7,168.51Z" style="fill:#ebebeb"></path><path d="M309.7,190c0,.15-15.08.26-33.69.26s-33.69-.11-33.69-.26,15.08-.26,33.69-.26S309.7,189.81,309.7,190Z" style="fill:#ebebeb"></path><rect x="241.49" y="147.07" width="68.21" height="21.44" style="fill:#FF725E"></rect><path d="M299.61,140.32c0,.14-10.35.26-23.11.26s-23.12-.12-23.12-.26,10.35-.26,23.12-.26S299.61,140.17,299.61,140.32Z" style="fill:#263238"></path><path d="M292.23,158.81c0,.14-8.7.26-19.42.26s-19.43-.12-19.43-.26,8.7-.26,19.43-.26S292.23,158.67,292.23,158.81Z" style="fill:#fff"></path><path d="M299.61,179.23c0,.15-10.35.26-23.11.26s-23.12-.11-23.12-.26,10.35-.26,23.12-.26S299.61,179.09,299.61,179.23Z" style="fill:#263238"></path><path d="M299.61,201.06c0,.14-10.35.26-23.11.26s-23.12-.12-23.12-.26,10.35-.26,23.12-.26S299.61,200.91,299.61,201.06Z" style="fill:#263238"></path><path d="M298.15,160.57l2-1.46a.52.52,0,0,0,0-.87l-2-1.21a.53.53,0,0,0-.8.45v2.66A.53.53,0,0,0,298.15,160.57Z" style="fill:#fff"></path><rect x="309.76" y="147.07" width="67.95" height="85.56" style="fill:#fafafa"></rect><path d="M377.72,232.62s0-.14,0-.41,0-.68,0-1.2c0-1.07,0-2.63,0-4.65,0-4.08,0-10-.06-17.53,0-15-.07-36.38-.12-61.76l.24.23-68,0h0l.26-.26c0,31.68,0,61.12,0,85.55l-.22-.21,49.29.11,13.77.06,3.63,0,1.27,0-1.22,0-3.59,0-13.73.06-49.42.11h-.21v-.22c0-24.43,0-53.87-.05-85.55v-.26h.27l68,0H378v.24c-.05,25.44-.09,46.85-.12,61.92,0,7.49-.05,13.41-.06,17.46,0,2,0,3.55,0,4.61,0,.51,0,.9,0,1.17S377.72,232.62,377.72,232.62Z" style="fill:#ebebeb"></path><path d="M377.72,190c0,.15-15.09.26-33.7.26s-33.69-.11-33.69-.26,15.08-.26,33.69-.26S377.72,189.81,377.72,190Z" style="fill:#ebebeb"></path><path d="M377.72,212.24c0,.15-15.09.26-33.7.26s-33.69-.11-33.69-.26S325.41,212,344,212,377.72,212.1,377.72,212.24Z" style="fill:#ebebeb"></path><path d="M377.72,168.51c0,.14-15.09.26-33.7.26s-33.69-.12-33.69-.26,15.08-.26,33.69-.26S377.72,168.37,377.72,168.51Z" style="fill:#ebebeb"></path><path d="M367.62,158.81c0,.14-10.35.26-23.11.26s-23.11-.12-23.11-.26,10.34-.26,23.11-.26S367.62,158.67,367.62,158.81Z" style="fill:#263238"></path><path d="M367.62,179.23c0,.15-10.35.26-23.11.26s-23.11-.11-23.11-.26,10.34-.26,23.11-.26S367.62,179.09,367.62,179.23Z" style="fill:#263238"></path><rect x="309.63" y="210.92" width="68.21" height="22.29" style="fill:#FF725E"></rect><path d="M363.79,223.22c0,.14-9.49.26-21.2.26s-21.19-.12-21.19-.26,9.49-.26,21.19-.26S363.79,223.07,363.79,223.22Z" style="fill:#fff"></path><path d="M367.62,201.06c0,.14-10.35.26-23.11.26s-23.11-.12-23.11-.26,10.34-.26,23.11-.26S367.62,200.91,367.62,201.06Z" style="fill:#263238"></path><polygon points="373.71 228.9 375.17 242.03 378.06 240.03 381.28 244.15 384.73 241.68 381.75 237.9 384.9 235.83 373.71 228.9" style="fill:#263238"></polygon><path d="M374.5,226.81a5.4,5.4,0,0,1,.71-2.21c.53-1.16,1.06-2,1.19-2a5.4,5.4,0,0,1-.71,2.21C375.16,226,374.63,226.87,374.5,226.81Z" style="fill:#263238"></path><path d="M372.31,227.9a18,18,0,0,1-2.43-3.62,19,19,0,0,1-2-3.89,37.56,37.56,0,0,1,4.4,7.51Z" style="fill:#263238"></path><path d="M370.69,229.71a6.06,6.06,0,0,1-2.16-.06,5.9,5.9,0,0,1-2.14-.34,3.81,3.81,0,0,1,2.19-.18A3.91,3.91,0,0,1,370.69,229.71Z" style="fill:#263238"></path><path d="M219.94,434.05c-.15,0-.26-74.19-.26-165.69s.11-165.71.26-165.71.26,74.18.26,165.71S220.08,434.05,219.94,434.05Z" style="fill:#263238"></path><path d="M381.77,289.52c0,.15-30.73.26-68.62.26s-68.63-.11-68.63-.26,30.72-.26,68.63-.26S381.77,289.38,381.77,289.52Z" style="fill:#e0e0e0"></path><path d="M381.77,258.48c0,.14-30.73.26-68.62.26s-68.63-.12-68.63-.26,30.72-.26,68.63-.26S381.77,258.33,381.77,258.48Z" style="fill:#e0e0e0"></path><path d="M381.77,316.82c0,.14-30.73.26-68.62.26s-68.63-.12-68.63-.26,30.72-.26,68.63-.26S381.77,316.67,381.77,316.82Z" style="fill:#e0e0e0"></path><path d="M381.77,346.22c0,.15-30.73.26-68.62.26s-68.63-.11-68.63-.26,30.72-.26,68.63-.26S381.77,346.08,381.77,346.22Z" style="fill:#e0e0e0"></path><path d="M381.77,375.63c0,.14-30.73.26-68.62.26s-68.63-.12-68.63-.26,30.72-.26,68.63-.26S381.77,375.49,381.77,375.63Z" style="fill:#e0e0e0"></path><path d="M371.88,121.18c0,.14-9.18.26-20.49.26s-20.5-.12-20.5-.26,9.17-.26,20.5-.26S371.88,121,371.88,121.18Z" style="fill:#263238"></path></g><g id="freepik--Plant--inject-4"><path d="M412.76,406.57c.87-3,2.72-5.9,5.59-7.14s6.44-.55,9.49.56,6.05,2.59,9.29,2.79,6.9-1.33,7.87-4.43c.92-2.92-.84-6-3-8.14a19.22,19.22,0,0,0-31.48,7.55" style="fill:#FF725E"></path><g style="opacity:0.30000000000000004"><path d="M442,390.21a19.22,19.22,0,0,0-31.48,7.55l2.28,8.81c.87-3,2.72-5.9,5.59-7.14s6.44-.55,9.49.56,6.05,2.59,9.29,2.79,6.9-1.33,7.87-4.43C445.92,395.43,444.16,392.32,442,390.21Z"></path></g><path d="M387.07,419.6c-4.75-4.52-4.52-12.39-2.14-18.51s7.55-10.81,13.33-13.91A42.25,42.25,0,0,1,435.07,386a17.45,17.45,0,0,0-14.12,8.3c-2.61,4.32-3.19,9.58-5.34,14.15a22.3,22.3,0,0,1-28.54,11.16" style="fill:#FF725E"></path><path d="M384.79,392.45c-5.27-6.22-6-16.2-5.2-24.31s2.66-16.27,1.38-24.32c-.76-4.77-2.61-9.32-3.23-14.1s.26-10.2,4-13.29c4.26-3.55,11-2.71,15.41.62s7,8.57,8.88,13.79c4.12,11.47,5.64,24.19,2.25,35.9s-11.34,22.17-23,25.71" style="fill:#FF725E"></path><path d="M382.26,443.45a3.83,3.83,0,0,1,0-.71c0-.47,0-1.17,0-2.06.07-1.78.24-4.36.64-7.53a99.06,99.06,0,0,1,2-11,50.88,50.88,0,0,1,5-12.77,53.49,53.49,0,0,1,8.22-11,52.88,52.88,0,0,1,8.62-7.17c1.32-.91,2.59-1.6,3.69-2.24s2.1-1.07,2.9-1.46l1.9-.8a6,6,0,0,1,.67-.25,4.64,4.64,0,0,1-.64.34l-1.85.86c-.79.41-1.76.92-2.87,1.53s-2.33,1.36-3.63,2.28a54.22,54.22,0,0,0-16.63,18.11c-4.84,8.47-6.17,17.38-7.13,23.62-.44,3.16-.65,5.72-.77,7.5l-.12,2.05A4.9,4.9,0,0,1,382.26,443.45Z" style="fill:#263238"></path><path d="M336.83,367.92c-9.74,5.88-9.71,11.23-8.08,16.28s7.61,8.56,12.56,6.67c2.81-1.07,4.84-3.5,6.57-5.95s3.36-5.07,5.79-6.83,6-2.43,8.4-.68" style="fill:#FF725E"></path><g style="opacity:0.30000000000000004"><path d="M336.83,367.92c-9.74,5.88-9.71,11.23-8.08,16.28s7.61,8.56,12.56,6.67c2.81-1.07,4.84-3.5,6.57-5.95s3.36-5.07,5.79-6.83a8.49,8.49,0,0,1,5.9-1.62Z"></path></g><path d="M359.57,376.47l2.5.94A5.46,5.46,0,0,0,359.57,376.47Z"></path><path d="M329.54,374.37c2.55-3.52,8.84-4.54,12.82-2.78s6.88,5.24,9.49,8.71,5.14,7.15,8.75,9.57,8.65,3.3,12.25.86a10.53,10.53,0,0,0,4.16-7.2,24.13,24.13,0,0,0-.57-8.5c-.86-4.09-2.27-8.35-5.54-10.95-3.64-2.9-8.7-3-13.35-2.88-5.34.17-10.75.58-15.76,2.43s-10.12,5.84-12.25,10.74" style="fill:#FF725E"></path><path d="M374.16,435.65s0-.07,0-.22,0-.37,0-.62c0-.59-.05-1.4-.08-2.42-.06-2.14-.15-5.17-.26-8.9s-.27-8.22-.54-13.18-.65-10.4-1.4-16.08a51.92,51.92,0,0,0-1.61-8.16,41.89,41.89,0,0,0-3-7.15,40.46,40.46,0,0,0-3.77-5.91,38.23,38.23,0,0,0-4.11-4.51,30.15,30.15,0,0,0-7.29-5c-.48-.21-.89-.43-1.27-.58l-.95-.37-.58-.24c-.13-.05-.2-.08-.19-.09l.2.05.6.2,1,.33c.38.14.81.34,1.29.55a29.25,29.25,0,0,1,7.43,4.9,38.74,38.74,0,0,1,4.19,4.52,41.45,41.45,0,0,1,3.84,5.95,42.66,42.66,0,0,1,3,7.2,51.36,51.36,0,0,1,1.63,8.24c.76,5.69,1.11,11.15,1.37,16.11s.37,9.44.45,13.2.11,6.79.12,8.89v2.42c0,.26,0,.47,0,.63A.89.89,0,0,1,374.16,435.65Z" style="fill:#263238"></path><path d="M377.67,440.05a27.55,27.55,0,0,1-1.07-4.18,44,44,0,0,1-.45-11.76,78.16,78.16,0,0,1,3.72-17.06c2-6.26,4.71-13,7-20.17A87.6,87.6,0,0,0,391.08,366a147.81,147.81,0,0,0,.31-17.42c-.17-5-.43-9-.6-11.74-.08-1.37-.14-2.44-.19-3.2,0-.34,0-.62,0-.83a1,1,0,0,1,0-.28,1.18,1.18,0,0,1,0,.28c0,.21.05.48.08.83.07.75.16,1.82.27,3.18.22,2.77.53,6.78.74,11.75a142.8,142.8,0,0,1-.22,17.47,94.75,94.75,0,0,1-1.36,10.23A91,91,0,0,1,387.31,387c-2.32,7.23-5.05,13.92-7.06,20.17a79.1,79.1,0,0,0-3.79,17,45,45,0,0,0,.31,11.7c.24,1.36.45,2.42.65,3.12.08.34.14.61.19.81A1.87,1.87,0,0,1,377.67,440.05Z" style="fill:#263238"></path><polygon points="406.94 438.8 349.1 438.8 347.78 427.67 406.94 427.67 406.94 438.8" style="fill:#455a64"></polygon><polygon points="355.31 437.53 362.54 470.93 393.97 470.93 400.74 437.53 355.31 437.53" style="fill:#455a64"></polygon><path d="M406.94,438.8c0,.15-12.71.24-28.4.2s-28.4-.21-28.4-.36,12.72-.24,28.4-.19S406.94,438.65,406.94,438.8Z" style="fill:#455a64"></path><path d="M397,455.29a23.65,23.65,0,0,0-5.1-2.92,18.06,18.06,0,0,0-6.19-1.25,21.87,21.87,0,0,0-7.62,1.4c-2.63.89-5.1,1.93-7.49,2.5a18,18,0,0,1-6.48.2A13.62,13.62,0,0,1,360,453.9a8.56,8.56,0,0,1-1-.64c-.22-.16-.32-.26-.31-.27s.49.28,1.41.71a14.42,14.42,0,0,0,4.12,1.13,18.18,18.18,0,0,0,6.31-.3c2.32-.58,4.78-1.63,7.44-2.53a21.71,21.71,0,0,1,7.8-1.39,17.82,17.82,0,0,1,6.33,1.4,16.66,16.66,0,0,1,3.77,2.19,10.06,10.06,0,0,1,.9.78C396.93,455.17,397,455.27,397,455.29Z" style="fill:#263238"></path><path d="M396.58,457.52a25.26,25.26,0,0,0-4.89-2.88,16.7,16.7,0,0,0-6-1.24,21.46,21.46,0,0,0-7.36,1.33c-2.55.85-4.94,1.84-7.23,2.45a18.18,18.18,0,0,1-6.22.7,9,9,0,0,1-5.06-1.7q-.31-.24-.3-.27s.48.28,1.37.69a11.15,11.15,0,0,0,4,.89,19.22,19.22,0,0,0,6.07-.79c2.23-.63,4.61-1.63,7.18-2.49a21.13,21.13,0,0,1,7.55-1.31,16.39,16.39,0,0,1,9.73,3.56,10.1,10.1,0,0,1,.86.76Q396.6,457.49,396.58,457.52Z" style="fill:#fff"></path><path d="M397.59,453.07a27.73,27.73,0,0,0-5.23-3.08,19.34,19.34,0,0,0-6.35-1.53,20.59,20.59,0,0,0-7.86,1.39,70.45,70.45,0,0,1-7.76,2.53,19.45,19.45,0,0,1-6.69,0,14.8,14.8,0,0,1-4.3-1.36,8.92,8.92,0,0,1-1-.64,1.42,1.42,0,0,1-.33-.28c0-.05.51.29,1.46.73a16.53,16.53,0,0,0,4.27,1.17,20.11,20.11,0,0,0,6.53-.13,77.33,77.33,0,0,0,7.68-2.55A20.45,20.45,0,0,1,386,448a18.94,18.94,0,0,1,6.48,1.67,18.45,18.45,0,0,1,3.85,2.33,9.35,9.35,0,0,1,.93.8A1.52,1.52,0,0,1,397.59,453.07Z" style="fill:#fff"></path><path d="M406.94,438.8c0,.12-13,.22-28.94.22s-28.94-.1-28.94-.22,12.95-.22,28.94-.22S406.94,438.68,406.94,438.8Z" style="fill:#263238"></path></g><g id="freepik--Character--inject-4"><path d="M225.36,442.22l-1.49,18.93s18.67,7.48,18.73,11L205.87,471l1.11-29.6Z" style="fill:#FF725E"></path><path d="M212.8,459.15a1.51,1.51,0,0,0-1.12,1.68,1.45,1.45,0,0,0,1.66,1.13,1.59,1.59,0,0,0,1.17-1.79,1.51,1.51,0,0,0-1.85-1" style="fill:#e0e0e0"></path><path d="M205.87,471l.09-2.36,35.63,1.86a2.77,2.77,0,0,1,1.19,1.88Z" style="fill:#f5f5f5"></path><path d="M224.2,461.29c0,.18-.92.22-1.84.77s-1.42,1.28-1.58,1.2.15-1.11,1.27-1.75S224.25,461.12,224.2,461.29Z" style="fill:#263238"></path><path d="M228,463.06c0,.18-.76.45-1.41,1.19s-.86,1.54-1,1.53-.25-1,.57-1.95S228,462.89,228,463.06Z" style="fill:#263238"></path><path d="M230,467.81c-.16,0-.38-.88.13-1.86s1.37-1.33,1.44-1.17-.48.66-.88,1.46S230.21,467.8,230,467.81Z" style="fill:#263238"></path><path d="M224.06,456.9c-.08.16-.9-.12-1.93-.09s-1.84.31-1.92.15.7-.77,1.91-.79S224.16,456.76,224.06,456.9Z" style="fill:#263238"></path><path d="M224.9,452.85a3.65,3.65,0,0,1-1.86-.09,8.75,8.75,0,0,1-1.92-.68,10.38,10.38,0,0,1-1-.61,2.41,2.41,0,0,1-.54-.46.79.79,0,0,1,0-1,1,1,0,0,1,.81-.38,2.67,2.67,0,0,1,.69.12,7.31,7.31,0,0,1,1.14.45,6.35,6.35,0,0,1,1.66,1.2c.83.83,1.09,1.52,1,1.55s-.48-.53-1.33-1.22a7.31,7.31,0,0,0-1.61-1,7.75,7.75,0,0,0-1.06-.37c-.38-.12-.72-.14-.83,0s0,.09,0,.21a2,2,0,0,0,.39.34,8.4,8.4,0,0,0,1,.6,9.91,9.91,0,0,0,1.77.77A12.51,12.51,0,0,1,224.9,452.85Z" style="fill:#263238"></path><path d="M179,442.22l-1.49,18.93s18.66,7.48,18.73,11L159.49,471l1.11-29.6Z" style="fill:#FF725E"></path><path d="M166.42,459.15a1.53,1.53,0,0,0-1.12,1.68A1.46,1.46,0,0,0,167,462a1.6,1.6,0,0,0,1.18-1.79,1.52,1.52,0,0,0-1.86-1" style="fill:#e0e0e0"></path><path d="M159.49,471l.09-2.36,35.64,1.86a2.81,2.81,0,0,1,1.19,1.88Z" style="fill:#f5f5f5"></path><path d="M177.83,461.29c0,.18-.92.22-1.84.77s-1.42,1.28-1.59,1.2.15-1.11,1.27-1.75S177.87,461.12,177.83,461.29Z" style="fill:#263238"></path><path d="M181.65,463.06c0,.18-.77.45-1.41,1.19s-.86,1.54-1,1.53-.25-1,.57-1.95S181.65,462.89,181.65,463.06Z" style="fill:#263238"></path><path d="M183.66,467.81c-.17,0-.38-.88.13-1.86s1.37-1.33,1.44-1.17-.48.66-.88,1.46S183.84,467.8,183.66,467.81Z" style="fill:#263238"></path><path d="M177.69,456.9c-.09.16-.91-.12-1.93-.09s-1.84.31-1.93.15.71-.77,1.92-.79S177.78,456.76,177.69,456.9Z" style="fill:#263238"></path><path d="M178.52,452.85a3.6,3.6,0,0,1-1.85-.09,8.75,8.75,0,0,1-1.92-.68,8.54,8.54,0,0,1-1-.61,2.44,2.44,0,0,1-.55-.46.81.81,0,0,1,0-1,1,1,0,0,1,.81-.38,2.67,2.67,0,0,1,.7.12,7.19,7.19,0,0,1,1.13.45,6.25,6.25,0,0,1,1.67,1.2c.82.83,1.09,1.52,1,1.55s-.47-.53-1.32-1.22a7.4,7.4,0,0,0-1.62-1,7.61,7.61,0,0,0-1-.37c-.39-.12-.72-.14-.83,0s0,.09,0,.21a2.07,2.07,0,0,0,.4.34,8.4,8.4,0,0,0,1,.6,10.16,10.16,0,0,0,1.76.77A12,12,0,0,1,178.52,452.85Z" style="fill:#263238"></path><path d="M206.2,278.08c1.73,2.16,36.72,83.8,36.72,92s-13.08,84.76-13.08,84.76l-24-.83s-1.78-41.16.38-53.26,3.74-28.29,3.74-28.29l-34.4-60.69s-3.89-23.32,0-30.23S206.2,278.08,206.2,278.08Z" style="fill:#455a64"></path><path d="M208.36,341.14c0,.87-12.5,35.8-14.54,46.6s-11.21,68-11.21,68L158.69,454s2.16-60.6,6.05-77,6.91-30.24,6.91-39.74-3-9.53-1.69-23.12,15.51-17.92,15.51-17.92Z" style="fill:#455a64"></path><path d="M191.26,336.22a7.51,7.51,0,0,0,.44,1.55c.31,1,.82,2.39,1.49,4.11a125.53,125.53,0,0,0,6,13.14,124,124,0,0,0,7.5,12.35c1.06,1.52,1.94,2.73,2.57,3.55a9.53,9.53,0,0,0,1,1.23,6.87,6.87,0,0,0-.84-1.38l-2.4-3.64c-2-3.1-4.67-7.44-7.31-12.41s-4.74-9.61-6.17-13c-.67-1.62-1.23-3-1.68-4A8.18,8.18,0,0,0,191.26,336.22Z" style="fill:#263238"></path><path d="M165.34,143.71a31,31,0,0,0,9.9,23.42l4.42-12.82" style="fill:#263238"></path><path d="M198.7,118.21a18.85,18.85,0,0,0-12.64-1.52,39.71,39.71,0,0,0-11.94,4.94,19.43,19.43,0,0,0-5.71,4.45c-2.76,3.47-5.49,9.17-5.75,13.59-.22,3.58,1.15,12.54,2.67,15.79,1.38,3,7.88,5.25,11.08,6l29.42-34.21A14.93,14.93,0,0,0,198.7,118.21Z" style="fill:#263238"></path><path d="M203.77,122.83l-7.05-1.27c3.85,9.18,4.9,30.18,7.1,39.89,2.6-3.77,8.64-15.26,8.31-19.83S212.15,122.05,203.77,122.83Z" style="fill:#263238"></path><path d="M207.8,137.79c-.46-7-5.15-15.68-12.17-14.92L179.4,127a12,12,0,0,0-9.07,11.09c0,.26,0-.06,0,.14l3.63,42.05,12.19,24.19h0l10.76-25.37V173s9-1.52,10.84-13.26C208.62,153.88,208.31,145.62,207.8,137.79Z" style="fill:#ffbe9d"></path><path d="M205,146.66a1.51,1.51,0,0,1-1.45,1.53,1.45,1.45,0,0,1-1.55-1.36,1.5,1.5,0,0,1,1.45-1.52A1.43,1.43,0,0,1,205,146.66Z" style="fill:#263238"></path><path d="M206,142.39c-.19.2-1.33-.64-2.95-.64s-2.81.83-3,.63.11-.44.62-.82a4.06,4.06,0,0,1,2.39-.74,4,4,0,0,1,2.35.75C206,142,206.13,142.3,206,142.39Z" style="fill:#263238"></path><path d="M190.9,146.66a1.51,1.51,0,0,1-1.45,1.53,1.44,1.44,0,0,1-1.55-1.36,1.5,1.5,0,0,1,1.44-1.52A1.44,1.44,0,0,1,190.9,146.66Z" style="fill:#263238"></path><path d="M190.65,142.39c-.19.2-1.34-.64-3-.63s-2.8.82-3,.62.1-.44.62-.82a4.06,4.06,0,0,1,2.39-.74,4,4,0,0,1,2.35.75C190.57,142,190.74,142.3,190.65,142.39Z" style="fill:#263238"></path><path d="M195.71,155.12a10.72,10.72,0,0,1,2.63-.48c.42,0,.81-.13.88-.41a2.2,2.2,0,0,0-.28-1.23l-1.23-3.14c-1.71-4.49-3-8.17-2.77-8.24s1.71,3.51,3.42,8c.42,1.11.81,2.16,1.18,3.17a2.37,2.37,0,0,1,.22,1.62,1,1,0,0,1-.68.61,2.74,2.74,0,0,1-.7.1A10.85,10.85,0,0,1,195.71,155.12Z" style="fill:#263238"></path><path d="M181.3,168.8s3.82,8.07,15.57,6.94V173A29.55,29.55,0,0,1,181.3,168.8Z" style="fill:#eb996e"></path><path d="M190.14,136.54c-.16.44-1.78.23-3.68.47s-3.44.75-3.69.36c-.11-.19.15-.61.77-1a6.23,6.23,0,0,1,2.73-1,6.11,6.11,0,0,1,2.88.33C189.85,136,190.2,136.33,190.14,136.54Z" style="fill:#263238"></path><path d="M205.51,137.44c-.29.36-1.4,0-2.75,0s-2.48.25-2.74-.13c-.11-.19.07-.56.56-.91a3.84,3.84,0,0,1,2.23-.61,3.8,3.8,0,0,1,2.19.74C205.48,136.88,205.63,137.26,205.51,137.44Z" style="fill:#263238"></path><path d="M204.61,127.07a5.18,5.18,0,0,0-4.56-2.93,10.12,10.12,0,0,0-5.42,1.58c-7,4-10.59,13.81-17.5,18-1.7,1-3.91.09-5.36,1.45s-2.38,3.54-1.58,5.36a16.52,16.52,0,0,1-2.4-4.06,5.58,5.58,0,0,1,.2-4.58c.6-1,1.65-1.82,1.94-3s-.15-2.09-.1-3.14a6.87,6.87,0,0,1,1.07-3A30.45,30.45,0,0,1,182.13,121a19.76,19.76,0,0,1,10.3-2.66,15.18,15.18,0,0,1,9.81,3.89c1.55,1.44,3.17,2.93,2.37,4.89" style="fill:#263238"></path><path d="M171.94,146.61c-.12-.33-6.25-2.54-6.33,4-.08,6.32,6.31,5.08,6.32,4.9S171.94,146.61,171.94,146.61Z" style="fill:#ffbe9d"></path><path d="M170,153.06s-.11.08-.3.16a1.08,1.08,0,0,1-.82,0,2.72,2.72,0,0,1-1.24-2.46,3.61,3.61,0,0,1,.32-1.57,1.29,1.29,0,0,1,.84-.84.57.57,0,0,1,.65.31c.08.18,0,.3.07.31s.14-.1.09-.36a.69.69,0,0,0-.24-.4.85.85,0,0,0-.61-.17,1.54,1.54,0,0,0-1.16,1,3.71,3.71,0,0,0-.4,1.76,2.87,2.87,0,0,0,1.58,2.75,1.17,1.17,0,0,0,1-.16C170,153.21,170,153.07,170,153.06Z" style="fill:#eb996e"></path><path d="M169.43,143.36a2.43,2.43,0,0,0,.38-.21c.24-.15.61-.36,1.06-.67a22.13,22.13,0,0,0,3.41-3.11,59.57,59.57,0,0,0,4.18-5.43,50.22,50.22,0,0,1,5.22-6.5,19.5,19.5,0,0,1,3.37-2.66,16.38,16.38,0,0,1,3.64-1.65,18.1,18.1,0,0,1,6.7-.82,17.24,17.24,0,0,1,4.49.88c.52.16.9.33,1.17.43a2.07,2.07,0,0,0,.41.15,1.91,1.91,0,0,0-.39-.2,11.24,11.24,0,0,0-1.16-.49,16.48,16.48,0,0,0-4.51-1,17.91,17.91,0,0,0-6.79.78,16.21,16.21,0,0,0-3.71,1.66,19.6,19.6,0,0,0-3.42,2.7,47.55,47.55,0,0,0-5.24,6.55,60.7,60.7,0,0,1-4.11,5.44,23.17,23.17,0,0,1-3.33,3.16c-.43.32-.79.54-1,.71A2.28,2.28,0,0,0,169.43,143.36Z" style="fill:#455a64"></path><path d="M171,145.15a9.73,9.73,0,0,0,.62,5.09c.8,1.54,2.81,2.58,4.31,1.72,1.23-.7,1.59-2.27,1.8-3.66.6-4,.87-8.11,1.51-12.13Z" style="fill:#263238"></path><path d="M191.73,158.2a3.12,3.12,0,0,0,1.56,4.89,1.84,1.84,0,0,0,1.18,0,2.63,2.63,0,0,0,1.26-1.63c.21-.55.43-1.09.65-1.64a.72.72,0,0,0,.06-.57.73.73,0,0,0-.53-.31l-4.06-1" style="fill:#eb996e"></path><path d="M194.38,162.91a3.54,3.54,0,0,1-1.84-.23,2.89,2.89,0,0,1-1.62-1.31,2.17,2.17,0,0,1-.24-1.26,3.4,3.4,0,0,1,.32-1.3,3.12,3.12,0,0,1,.76-1.05l.11-.1.13,0c2.69,1,4.79,1.43,4.77,1.55a16.29,16.29,0,0,1-4.92-1.09l.24,0a3,3,0,0,0-.65.91,2.61,2.61,0,0,0-.12,2.14,2.67,2.67,0,0,0,1.35,1.2C193.67,162.77,194.4,162.82,194.38,162.91Z" style="fill:#263238"></path><path d="M203.05,124.06s-.56-.11-1.57-.14a10.93,10.93,0,0,0-4.19.76,14.54,14.54,0,0,0-2.62,1.35,27.84,27.84,0,0,0-2.7,2.07,32.16,32.16,0,0,0-5.3,5.71c-.8,1.13-1.52,2.29-2.29,3.36a15.9,15.9,0,0,1-2.53,2.85,28.31,28.31,0,0,1-5.35,3.58c-1.62.86-3,1.45-3.9,1.87l-1.08.46a2.28,2.28,0,0,1-.39.14,2,2,0,0,1,.36-.21l1-.52c.91-.45,2.25-1.08,3.84-2a28.89,28.89,0,0,0,5.25-3.6A15.73,15.73,0,0,0,184.1,137c.76-1.06,1.47-2.22,2.28-3.37a32.41,32.41,0,0,1,5.37-5.75,26.66,26.66,0,0,1,2.76-2.06,13.74,13.74,0,0,1,2.69-1.34,10.5,10.5,0,0,1,4.28-.67,8.65,8.65,0,0,1,1.18.16A2.21,2.21,0,0,1,203.05,124.06Z" style="fill:#455a64"></path><path d="M170.84,141.25a2.4,2.4,0,0,1-.56.37l-1.6.94-.54.31a1.66,1.66,0,0,1-.69.23.64.64,0,0,1-.43-.1.53.53,0,0,1-.23-.42,1.41,1.41,0,0,1,.29-.8l1.86-3,.25.23a6.44,6.44,0,0,1-2,1,6.29,6.29,0,0,1-2.26.27,1.73,1.73,0,0,1-.58-.1.77.77,0,0,1-.49-.42.7.7,0,0,1,.11-.64,2.4,2.4,0,0,1,.36-.4,13.35,13.35,0,0,0,2.15-2.72,20.68,20.68,0,0,0,1.37-2.91,3.09,3.09,0,0,1-.2.85,11.16,11.16,0,0,1-1,2.19,12.65,12.65,0,0,1-2.14,2.82c-.24.23-.47.49-.38.68s.43.3.77.3a6.08,6.08,0,0,0,2.14-.26,6.44,6.44,0,0,0,1.93-1l.75-.55-.5.78-1.9,3a1.15,1.15,0,0,0-.27.61.3.3,0,0,0,.37.27,3.29,3.29,0,0,0,1.13-.46l1.65-.85A2.35,2.35,0,0,1,170.84,141.25Z" style="fill:#455a64"></path><path d="M251.48,180.12a21.2,21.2,0,0,1,4-8.47c3.13-3.87,11.25-9.72,11.25-9.72s10.54-5,11.37-4.33.9,1.82-.58,2.63-7.52,5.34-7.52,5.34,1.85,1.22,1.54,2.62a3.76,3.76,0,0,1-.92,1.94,5.9,5.9,0,0,1,1.89,2.5,5.69,5.69,0,0,1,0,2.12,1.66,1.66,0,0,1,.9,1.83,8.55,8.55,0,0,1-.73,2.6s-4.27,3.13-5.77,3.29-3.48.28-3.48.28l-1.58,1.37-1,4.47Z" style="fill:#ffbe9d"></path><path d="M159.18,224.77c.71-7.67.32-10.1,1.5-19.47,1.06-8.35,5.39-22.38,11-28.66l25.13,3.15a48.47,48.47,0,0,0,1.52,4.69,57.35,57.35,0,0,0,4.39,9.16c4.2,7,10.46,15.07,11.57,19.16.12.46,1.28,36.54,1.28,36.54s2.85,27.06,5.45,36.27,5.4,17.41,5,20.41-5,5.82-5,5.82l-8.51-11.36a2.78,2.78,0,0,0-4.45,0,40.31,40.31,0,0,0-5.2,9.17c-3.22,7.92-9.74,23.26-13.69,27.8-5.4,6.2-8,2.4-8,2.4S162.91,316.48,161.13,307l0,.09C158.13,302.92,158.44,232.75,159.18,224.77Z" style="fill:#FF725E"></path><path d="M251.12,178s-22.69,32.44-23.47,32.44-27.31-18.68-27.31-18.68-13.23-9.65-18.88-5.17c-11.34,9-1.26,24.32-1.26,24.32S220,238,232.26,239s28.05-47.94,28.05-47.94l2.08-2.8Z" style="fill:#FF725E"></path><path d="M228.48,222.39a17.88,17.88,0,0,0-.8-12.06c-.17,0,.67,2.66.88,6S228.31,222.36,228.48,222.39Z" style="fill:#263238"></path><path d="M233.51,220.53a11.32,11.32,0,0,0-1.83-5.7,12.18,12.18,0,0,0-4-4.42c-.13.14,1.9,1.91,3.54,4.71S233.33,220.57,233.51,220.53Z" style="fill:#263238"></path><path d="M197.92,183.12l-.21,1.9-28.2-5.48.5-7.91s0-2.2,2.66-2.2c1.32,0,24.15,5.73,25,6.32C199.93,177.22,197.92,183.12,197.92,183.12Z" style="fill:#FF725E"></path><path d="M190.07,185.1a11.74,11.74,0,0,1,1.53.91l4.06,2.63c3.42,2.24,8.12,5.36,13.27,8.87s9.76,6.78,13,9.22c1.64,1.22,2.95,2.22,3.85,2.93a12,12,0,0,1,1.36,1.15,14.45,14.45,0,0,1-1.48-1l-3.95-2.8c-3.33-2.36-8-5.58-13.11-9.09l-13.18-9-4-2.77A12.44,12.44,0,0,1,190.07,185.1Z" style="fill:#263238"></path><path d="M182.66,213.21a7.69,7.69,0,0,1,1.31.72l3.49,2.11c2.94,1.79,7,4.27,11.53,6.91s8.69,5,11.71,6.6l3.58,1.95a7.55,7.55,0,0,1,1.29.77,8.26,8.26,0,0,1-1.38-.59c-.87-.41-2.12-1-3.66-1.8-3.07-1.56-7.26-3.82-11.8-6.48s-8.58-5.17-11.47-7.05c-1.44-.93-2.61-1.71-3.4-2.25A8.82,8.82,0,0,1,182.66,213.21Z" style="fill:#263238"></path><path d="M175.46,204.62a3.15,3.15,0,0,1-.41-.87,13,13,0,0,1-.66-2.57,14.58,14.58,0,0,1,7.19-14.93,12.73,12.73,0,0,1,2.42-1.09,3,3,0,0,1,.95-.22c0,.1-1.31.46-3.18,1.63a15,15,0,0,0-7,14.56C175,203.31,175.56,204.59,175.46,204.62Z" style="fill:#263238"></path><path d="M169.48,179.4a3.82,3.82,0,0,1,1.05-.47,12.56,12.56,0,0,1,3.11-.57,18.81,18.81,0,0,1,4.67.35,40.48,40.48,0,0,1,5.49,1.56c1.91.66,3.71,1.32,5.38,1.81a28.44,28.44,0,0,0,4.49,1,26.87,26.87,0,0,0,4.25.07,3.79,3.79,0,0,1-1.13.25,15,15,0,0,1-3.15,0,25.32,25.32,0,0,1-4.59-.87c-1.7-.47-3.51-1.12-5.42-1.78a44,44,0,0,0-5.42-1.58,17.13,17.13,0,0,0-8.73.22Z" style="fill:#263238"></path><path d="M256.57,184.1s0,.1-.07.3l-.24.86c-.22.76-.55,1.86-1,3.29-.89,2.85-2.25,6.95-4.11,11.95s-4.25,10.9-7.2,17.32a50,50,0,0,1-2.42,4.87,9.84,9.84,0,0,1-4.09,4,9,9,0,0,1-5.89.42,22.67,22.67,0,0,1-5.64-2.27,168.61,168.61,0,0,1-19.11-12.75c-5.66-4.2-10.79-8-15.33-10.73a77.26,77.26,0,0,0-11.16-5.84c-1.36-.62-2.48-.94-3.2-1.25l-.83-.32a1.57,1.57,0,0,1-.28-.12,1,1,0,0,1,.29.07l.85.27c.74.28,1.87.57,3.24,1.16A73,73,0,0,1,191.66,201c4.59,2.76,9.75,6.48,15.43,10.66a171,171,0,0,0,19.07,12.68,22,22,0,0,0,5.5,2.22,8.47,8.47,0,0,0,5.57-.37,9.24,9.24,0,0,0,3.87-3.79,50.33,50.33,0,0,0,2.42-4.81c3-6.4,5.37-12.27,7.28-17.25s3.32-9.06,4.27-11.88c.46-1.39.83-2.48,1.09-3.26.12-.35.21-.63.29-.85A1.2,1.2,0,0,1,256.57,184.1Z" style="fill:#fff"></path><path d="M169.46,322.71s-.05-.06-.12-.18L169,322c-.27-.52-.72-1.26-1.2-2.27a53.38,53.38,0,0,1-3-9.15c-1.92-8-3.28-19.67-3.2-33.32v0c-.43-7.74-.74-16.25-.78-25.14,0-5,0-9.79.13-14.46s.22-9.17.51-13.46a149.63,149.63,0,0,1,3.09-22.59,110.08,110.08,0,0,1,4.28-14.77c.64-1.7,1.16-3,1.55-3.88.18-.42.33-.75.44-1a2.17,2.17,0,0,1,.16-.34,1.69,1.69,0,0,1-.11.36l-.39,1c-.36.89-.85,2.2-1.46,3.91a116.71,116.71,0,0,0-4.11,14.78,152.93,152.93,0,0,0-3,22.54c-.28,4.28-.37,8.78-.48,13.45s-.15,9.49-.12,14.44c0,8.88.34,17.37.75,25.11h0c-.12,13.6,1.17,25.24,3,33.24a55.75,55.75,0,0,0,2.87,9.15c.45,1,.87,1.77,1.12,2.3.11.25.21.44.28.6Z" style="fill:#fff"></path><path d="M177,274.09a5.36,5.36,0,0,1-.12-.61c-.06-.45-.14-1-.25-1.76l-.16-1.27c-.05-.47-.07-1-.11-1.52-.07-1.1-.19-2.34-.17-3.72,0-.7,0-1.42,0-2.17s.05-1.54.07-2.35c0-1.62.19-3.35.32-5.17.33-3.63.84-7.61,1.46-11.77s1.23-8.11,1.78-11.71.89-6.86,1.11-9.6c.15-1.37.19-2.61.26-3.7s.11-2,.12-2.8,0-1.32.05-1.78a2.45,2.45,0,0,1,.06-.61,2.8,2.8,0,0,1,0,.61c0,.46,0,1.05,0,1.78s0,1.71,0,2.81-.06,2.34-.18,3.72c-.17,2.75-.53,6-1,9.63s-1.1,7.57-1.73,11.73-1.14,8.12-1.5,11.73c-.14,1.81-.32,3.53-.37,5.15,0,.81-.08,1.59-.1,2.34s0,1.46,0,2.15c0,1.38.06,2.62.1,3.71,0,.54,0,1,.07,1.52s.08.88.12,1.27q.09,1.08.15,1.77A2.27,2.27,0,0,1,177,274.09Z" style="fill:#fff"></path><path d="M186.11,334.59a2.43,2.43,0,0,1-.31-.52l-.81-1.54c-.36-.67-.77-1.5-1.19-2.49s-1-2.09-1.41-3.36-1-2.65-1.47-4.18-.93-3.16-1.39-4.89a75.05,75.05,0,0,1-2-23.13c.16-1.78.28-3.48.53-5.06s.47-3,.74-4.36.56-2.52.81-3.56.51-1.93.74-2.65.4-1.23.53-1.66a3.82,3.82,0,0,1,.22-.57,2.22,2.22,0,0,1-.12.6c-.11.44-.25,1-.43,1.68s-.44,1.62-.66,2.67-.53,2.23-.73,3.56-.5,2.78-.67,4.35-.34,3.26-.48,5a86.93,86.93,0,0,0,.14,11.57A85.2,85.2,0,0,0,180,317.5c.44,1.72.83,3.37,1.33,4.87s.94,2.91,1.4,4.18.94,2.38,1.34,3.38.77,1.83,1.1,2.51l.72,1.59A3.43,3.43,0,0,1,186.11,334.59Z" style="fill:#fff"></path><path d="M206.33,289.23a2.89,2.89,0,0,1-.06-.66c0-.48,0-1.11-.07-1.89,0-1.7-.12-4.05-.2-6.93-.18-5.86-.49-13.94-1-22.86s-1.23-17-1.78-22.82c-.27-2.87-.49-5.22-.65-6.91-.07-.77-.13-1.4-.17-1.88a3,3,0,0,1,0-.66,3.17,3.17,0,0,1,.13.65c.06.48.15,1.1.26,1.87.22,1.62.5,4,.82,6.89.64,5.83,1.38,13.89,1.93,22.82s.81,17,.89,22.89c0,2.93,0,5.3,0,6.94,0,.78,0,1.4,0,1.89A4.28,4.28,0,0,1,206.33,289.23Z" style="fill:#fff"></path><path d="M204.27,305.83a9.05,9.05,0,0,1-1.19-2.39,27,27,0,0,1-1.62-6.27,26.56,26.56,0,0,1-.06-6.47,9.47,9.47,0,0,1,.53-2.63,24.42,24.42,0,0,1-.17,2.66,33,33,0,0,0,1.66,12.58A25.42,25.42,0,0,1,204.27,305.83Z" style="fill:#fff"></path><g style="opacity:0.30000000000000004"><path d="M215,232c-6.94-.62-12.35-1.29-18.71-4.15s-12.35-7.77-13.63-14.62C194,219.32,203.65,225.87,215,232Z"></path></g><path d="M181.33,186.26a34.65,34.65,0,0,1-.89-3.46c-.53-1.88-1.22-3.33-1.08-3.4a7.59,7.59,0,0,1,1.58,3.26A7.71,7.71,0,0,1,181.33,186.26Z" style="fill:#fff"></path><g style="opacity:0.30000000000000004"><path d="M197.6,184.1c-.3-.81-1.42-.82-2.29-.76-4.29.28-8.42-1.41-12.47-2.86s-8.46-2.68-12.58-1.45l0,.28a36.69,36.69,0,0,0,12.61,3.75c3.76.41,7.7.26,11.12,1.88a5,5,0,0,0,2.28.74C197.05,185.64,197.88,184.86,197.6,184.1Z"></path></g><g style="opacity:0.30000000000000004"><path d="M233.73,215a10.23,10.23,0,0,0-5.73-4.54l-.16.26a17.65,17.65,0,0,1,5.75,11.24c0,.47.25,1.09.71,1s.51-.44.59-.78A10.27,10.27,0,0,0,233.73,215Z"></path></g><path d="M211.15,294A10.45,10.45,0,0,1,209.8,293c-.41-.37-.93-.79-1.55-1.29s-1.3-1.06-2.09-1.65c-1.56-1.22-3.49-2.57-5.65-4s-4.63-2.94-7.26-4.42-5.21-2.75-7.57-3.86-4.55-2-6.41-2.69c-.91-.37-1.76-.66-2.5-.92s-1.38-.48-1.91-.64a11.62,11.62,0,0,1-1.62-.58,10,10,0,0,1,1.68.38c.54.13,1.19.33,1.94.57s1.61.5,2.54.84c1.88.64,4.07,1.55,6.48,2.6s5,2.37,7.63,3.84,5.09,3,7.27,4.48,4.07,2.89,5.61,4.15c.78.61,1.46,1.2,2.05,1.72s1.1,1,1.5,1.36A11.67,11.67,0,0,1,211.15,294Z" style="fill:#263238"></path><g style="opacity:0.30000000000000004"><path d="M174,273a1.51,1.51,0,0,1,0-2.31,2.55,2.55,0,0,1,2.54-.26,9.09,9.09,0,0,1,2.22,1.49c7.15,5.76,16.42,8.33,23.82,13.76,2,1.5,4,3.24,6.47,3.81.84.2,1.9.42,2.09,1.26s-.75,1.51-1.57,1.44a4.13,4.13,0,0,1-2.16-1.13A97.14,97.14,0,0,0,174,273"></path></g></g></svg>